# xmcd CD database file
#
# Track frame offsets:
#	150
#	15401
#	24756
#	40401
#	55022
#	69047
#	83365
#	104064
#	122321
#	133232
#
# Disc length: 1905 seconds
#
# Revision: 0
# Processed by: cddbd v1.5.1PL0 Copyright (c) Steve Scherf et al.
# Submitted via: CDex 1.51
#
DISCID=6d076f0a
DTITLE=Richard Draime - You're Not Alone
DYEAR=2005
DGENRE=Country
TTITLE0=As He Called Out My Name
TTITLE1=Ask Jesus To Wash Away Your Sins
TTITLE2=God's New Angel
TTITLE3=Heaven Bound Train
TTITLE4=How About You
TTITLE5=The Joy Of Believing
TTITLE6=Life's Other Side
TTITLE7=Show Me The Way
TTITLE8=Your Heavenly Home
TTITLE9=You're Not Alone
EXTD=YEAR: 2005
EXTT0=
EXTT1=
EXTT2=
EXTT3=
EXTT4=
EXTT5=
EXTT6=
EXTT7=
EXTT8=
EXTT9=
PLAYORDER=
